<mxfile host="app.diagrams.net" modified="2021-11-03T13:27:11.573Z" agent="5.0 (X11; Linux x86_64) AppleWebKit/537.36 (KHTML, like Gecko) Chrome/95.0.4638.69 Safari/537.36" etag="WF8Tn2uI5rDzh0LLAJWL" version="15.6.6" type="github">
  <diagram id="C5RBs43oDa-KdzZeNtuy" name="Page-1">
    <mxGraphModel dx="2064" dy="836" grid="1" gridSize="10" guides="1" tooltips="1" connect="1" arrows="1" fold="1" page="1" pageScale="1" pageWidth="827" pageHeight="1169" math="0" shadow="0">
      <root>
        <mxCell id="WIyWlLk6GJQsqaUBKTNV-0" />
        <mxCell id="WIyWlLk6GJQsqaUBKTNV-1" parent="WIyWlLk6GJQsqaUBKTNV-0" />
        <mxCell id="zSGzg84ixzhKEyaKmv-p-1" value="Máquina Virtual - Contiki OS" style="swimlane;fontColor=default;strokeColor=default;fillColor=default;" vertex="1" parent="WIyWlLk6GJQsqaUBKTNV-1">
          <mxGeometry x="30" y="10" width="520" height="430" as="geometry" />
        </mxCell>
        <mxCell id="zSGzg84ixzhKEyaKmv-p-2" value="Cooja" style="swimlane;fontColor=default;strokeColor=default;fillColor=default;startSize=20;" vertex="1" parent="zSGzg84ixzhKEyaKmv-p-1">
          <mxGeometry x="20" y="45" width="480" height="365" as="geometry" />
        </mxCell>
        <mxCell id="zSGzg84ixzhKEyaKmv-p-3" value="Dispenser 1" style="shape=process;whiteSpace=wrap;html=1;backgroundOutline=1;fontColor=default;strokeColor=default;fillColor=default;" vertex="1" parent="zSGzg84ixzhKEyaKmv-p-2">
          <mxGeometry x="60" y="75" width="120" height="60" as="geometry" />
        </mxCell>
        <mxCell id="zSGzg84ixzhKEyaKmv-p-4" value="Dispenser N" style="shape=process;whiteSpace=wrap;html=1;backgroundOutline=1;fontColor=default;strokeColor=default;fillColor=default;" vertex="1" parent="zSGzg84ixzhKEyaKmv-p-2">
          <mxGeometry x="280" y="75" width="120" height="60" as="geometry" />
        </mxCell>
        <mxCell id="zSGzg84ixzhKEyaKmv-p-5" value="MQTT" style="shape=parallelogram;perimeter=parallelogramPerimeter;whiteSpace=wrap;html=1;fixedSize=1;fontColor=default;strokeColor=default;fillColor=default;" vertex="1" parent="zSGzg84ixzhKEyaKmv-p-2">
          <mxGeometry x="170" y="217.5" width="120" height="60" as="geometry" />
        </mxCell>
        <mxCell id="zSGzg84ixzhKEyaKmv-p-9" value="IEE 802.15.4 - IPV6" style="text;html=1;align=center;verticalAlign=middle;resizable=0;points=[];autosize=1;strokeColor=none;fillColor=default;fontColor=default;rotation=-90;" vertex="1" parent="zSGzg84ixzhKEyaKmv-p-2">
          <mxGeometry x="290" y="185" width="120" height="20" as="geometry" />
        </mxCell>
        <mxCell id="zSGzg84ixzhKEyaKmv-p-10" value="IEE 802.15.4 - IPV6" style="text;html=1;align=center;verticalAlign=middle;resizable=0;points=[];autosize=1;strokeColor=none;fillColor=default;fontColor=default;rotation=-90;" vertex="1" parent="zSGzg84ixzhKEyaKmv-p-2">
          <mxGeometry x="50" y="185" width="120" height="20" as="geometry" />
        </mxCell>
        <mxCell id="zSGzg84ixzhKEyaKmv-p-15" value="" style="endArrow=classic;startArrow=classic;html=1;rounded=0;labelBackgroundColor=default;fontColor=default;strokeColor=default;fillColor=default;entryX=0.442;entryY=1.05;entryDx=0;entryDy=0;entryPerimeter=0;exitX=1;exitY=0.5;exitDx=0;exitDy=0;" edge="1" parent="zSGzg84ixzhKEyaKmv-p-2" source="zSGzg84ixzhKEyaKmv-p-5" target="zSGzg84ixzhKEyaKmv-p-4">
          <mxGeometry width="50" height="50" relative="1" as="geometry">
            <mxPoint x="260" y="217.5" as="sourcePoint" />
            <mxPoint x="310" y="167.5" as="targetPoint" />
            <Array as="points">
              <mxPoint x="333" y="248" />
            </Array>
          </mxGeometry>
        </mxCell>
        <mxCell id="zSGzg84ixzhKEyaKmv-p-16" value="" style="endArrow=classic;startArrow=classic;html=1;rounded=0;labelBackgroundColor=default;fontColor=default;strokeColor=default;fillColor=default;entryX=0.442;entryY=1.05;entryDx=0;entryDy=0;entryPerimeter=0;exitX=0;exitY=0.5;exitDx=0;exitDy=0;" edge="1" parent="zSGzg84ixzhKEyaKmv-p-2" source="zSGzg84ixzhKEyaKmv-p-5">
          <mxGeometry width="50" height="50" relative="1" as="geometry">
            <mxPoint x="70" y="244.5" as="sourcePoint" />
            <mxPoint x="123.03999999999996" y="135" as="targetPoint" />
            <Array as="points">
              <mxPoint x="123" y="248" />
            </Array>
          </mxGeometry>
        </mxCell>
        <mxCell id="zSGzg84ixzhKEyaKmv-p-18" style="edgeStyle=orthogonalEdgeStyle;rounded=0;orthogonalLoop=1;jettySize=auto;html=1;entryX=0.5;entryY=1;entryDx=0;entryDy=0;labelBackgroundColor=default;fontColor=default;strokeColor=default;fillColor=default;startArrow=classic;startFill=1;" edge="1" parent="zSGzg84ixzhKEyaKmv-p-2" source="zSGzg84ixzhKEyaKmv-p-17" target="zSGzg84ixzhKEyaKmv-p-5">
          <mxGeometry relative="1" as="geometry" />
        </mxCell>
        <mxCell id="zSGzg84ixzhKEyaKmv-p-17" value="Nó Sync" style="whiteSpace=wrap;html=1;aspect=fixed;fontColor=default;strokeColor=default;fillColor=default;" vertex="1" parent="zSGzg84ixzhKEyaKmv-p-2">
          <mxGeometry x="364" y="265" width="80" height="80" as="geometry" />
        </mxCell>
        <mxCell id="zSGzg84ixzhKEyaKmv-p-30" value="GCP - Google Cloud Platform" style="swimlane;fontColor=default;strokeColor=default;fillColor=default;" vertex="1" parent="WIyWlLk6GJQsqaUBKTNV-1">
          <mxGeometry x="180" y="460" width="360" height="270" as="geometry" />
        </mxCell>
        <mxCell id="zSGzg84ixzhKEyaKmv-p-31" value="Firebase" style="swimlane;fontColor=default;strokeColor=default;fillColor=default;startSize=20;" vertex="1" parent="zSGzg84ixzhKEyaKmv-p-30">
          <mxGeometry x="20" y="40" width="320" height="200" as="geometry" />
        </mxCell>
        <mxCell id="zSGzg84ixzhKEyaKmv-p-42" value="Web Interface" style="rounded=1;whiteSpace=wrap;html=1;fontColor=default;strokeColor=default;fillColor=default;labelBackgroundColor=default;" vertex="1" parent="zSGzg84ixzhKEyaKmv-p-31">
          <mxGeometry x="20" y="50" width="120" height="60" as="geometry" />
        </mxCell>
        <mxCell id="zSGzg84ixzhKEyaKmv-p-43" value="DB&lt;br&gt;Firestore" style="shape=cylinder3;whiteSpace=wrap;html=1;boundedLbl=1;backgroundOutline=1;size=15;fontColor=default;strokeColor=default;fillColor=default;labelBackgroundColor=default;" vertex="1" parent="zSGzg84ixzhKEyaKmv-p-31">
          <mxGeometry x="150" y="110" width="60" height="80" as="geometry" />
        </mxCell>
        <mxCell id="zSGzg84ixzhKEyaKmv-p-44" style="edgeStyle=orthogonalEdgeStyle;rounded=0;orthogonalLoop=1;jettySize=auto;html=1;entryX=0;entryY=0.5;entryDx=0;entryDy=0;entryPerimeter=0;labelBackgroundColor=default;fontColor=default;startArrow=none;startFill=0;strokeColor=default;fillColor=default;exitX=0.5;exitY=1;exitDx=0;exitDy=0;" edge="1" parent="zSGzg84ixzhKEyaKmv-p-31" source="zSGzg84ixzhKEyaKmv-p-42" target="zSGzg84ixzhKEyaKmv-p-43">
          <mxGeometry relative="1" as="geometry" />
        </mxCell>
        <mxCell id="zSGzg84ixzhKEyaKmv-p-47" style="edgeStyle=orthogonalEdgeStyle;rounded=0;orthogonalLoop=1;jettySize=auto;html=1;entryX=1;entryY=0.5;entryDx=0;entryDy=0;entryPerimeter=0;labelBackgroundColor=default;fontColor=default;startArrow=none;startFill=0;strokeColor=default;fillColor=default;exitX=0.5;exitY=1;exitDx=0;exitDy=0;" edge="1" parent="zSGzg84ixzhKEyaKmv-p-31" source="zSGzg84ixzhKEyaKmv-p-45" target="zSGzg84ixzhKEyaKmv-p-43">
          <mxGeometry relative="1" as="geometry" />
        </mxCell>
        <mxCell id="zSGzg84ixzhKEyaKmv-p-45" value="API" style="ellipse;whiteSpace=wrap;html=1;aspect=fixed;fontColor=default;strokeColor=default;fillColor=default;labelBackgroundColor=default;" vertex="1" parent="zSGzg84ixzhKEyaKmv-p-31">
          <mxGeometry x="214" y="40" width="80" height="80" as="geometry" />
        </mxCell>
        <mxCell id="zSGzg84ixzhKEyaKmv-p-41" style="edgeStyle=orthogonalEdgeStyle;rounded=0;orthogonalLoop=1;jettySize=auto;html=1;exitX=0.5;exitY=1;exitDx=0;exitDy=0;entryX=0.5;entryY=0;entryDx=0;entryDy=0;labelBackgroundColor=default;fontColor=default;startArrow=none;startFill=0;strokeColor=default;fillColor=default;" edge="1" parent="WIyWlLk6GJQsqaUBKTNV-1" source="zSGzg84ixzhKEyaKmv-p-17" target="zSGzg84ixzhKEyaKmv-p-45">
          <mxGeometry relative="1" as="geometry" />
        </mxCell>
      </root>
    </mxGraphModel>
  </diagram>
</mxfile>
